<?xml version="1.0" encoding="utf-8" standalone="no"?>
<!DOCTYPE svg PUBLIC "-//W3C//DTD SVG 1.1//EN"
  "http://www.w3.org/Graphics/SVG/1.1/DTD/svg11.dtd">
<!-- Created with matplotlib (https://matplotlib.org/) -->
<svg height="576pt" version="1.1" viewBox="0 0 720 576" width="720pt" xmlns="http://www.w3.org/2000/svg" xmlns:xlink="http://www.w3.org/1999/xlink">
 <defs>
  <style type="text/css">
*{stroke-linecap:butt;stroke-linejoin:round;}
  </style>
 </defs>
 <g id="figure_1">
  <g id="patch_1">
   <path d="M 0 576 
L 720 576 
L 720 0 
L 0 0 
z
" style="fill:#ffffff;"/>
  </g>
  <g id="axes_1">
   <g id="patch_2">
    <path d="M 90 512.64 
L 648 512.64 
L 648 69.12 
L 90 69.12 
z
" style="fill:#ffffff;"/>
   </g>
   <g id="patch_3">
    <path clip-path="url(#p1fa9e02d4b)" d="M 95.58 492.111445 
L 140.22 492.111445 
L 140.22 491.590399 
L 95.58 491.590399 
L 95.58 492.111445 
z
" style="fill:#3274a1;stroke:#3d3d3d;stroke-linejoin:miter;stroke-width:1.5;"/>
   </g>
   <g id="patch_4">
    <path clip-path="url(#p1fa9e02d4b)" d="M 151.38 492.073326 
L 196.02 492.073326 
L 196.02 491.613032 
L 151.38 491.613032 
L 151.38 492.073326 
z
" style="fill:#e1812c;stroke:#3d3d3d;stroke-linejoin:miter;stroke-width:1.5;"/>
   </g>
   <g id="patch_5">
    <path clip-path="url(#p1fa9e02d4b)" d="M 207.18 492.302082 
L 251.82 492.302082 
L 251.82 492.022491 
L 207.18 492.022491 
L 207.18 492.302082 
z
" style="fill:#3a923a;stroke:#3d3d3d;stroke-linejoin:miter;stroke-width:1.5;"/>
   </g>
   <g id="patch_6">
    <path clip-path="url(#p1fa9e02d4b)" d="M 262.98 492.073324 
L 307.62 492.073324 
L 307.62 491.625792 
L 262.98 491.625792 
L 262.98 492.073324 
z
" style="fill:#c03d3e;stroke:#3d3d3d;stroke-linejoin:miter;stroke-width:1.5;"/>
   </g>
   <g id="patch_7">
    <path clip-path="url(#p1fa9e02d4b)" d="M 318.78 492.314786 
L 363.42 492.314786 
L 363.42 492.060617 
L 318.78 492.060617 
L 318.78 492.314786 
z
" style="fill:#9372b2;stroke:#3d3d3d;stroke-linejoin:miter;stroke-width:1.5;"/>
   </g>
   <g id="patch_8">
    <path clip-path="url(#p1fa9e02d4b)" d="M 374.58 492.086034 
L 419.22 492.086034 
L 419.22 491.564977 
L 374.58 491.564977 
L 374.58 492.086034 
z
" style="fill:#845b53;stroke:#3d3d3d;stroke-linejoin:miter;stroke-width:1.5;"/>
   </g>
   <g id="patch_9">
    <path clip-path="url(#p1fa9e02d4b)" d="M 430.38 492.302078 
L 475.02 492.302078 
L 475.02 492.060616 
L 430.38 492.060616 
L 430.38 492.302078 
z
" style="fill:#d684bd;stroke:#3d3d3d;stroke-linejoin:miter;stroke-width:1.5;"/>
   </g>
   <g id="patch_10">
    <path clip-path="url(#p1fa9e02d4b)" d="M 486.18 492.42917 
L 530.82 492.42917 
L 530.82 492.391039 
L 486.18 492.391039 
L 486.18 492.42917 
z
" style="fill:#7f7f7f;stroke:#3d3d3d;stroke-linejoin:miter;stroke-width:1.5;"/>
   </g>
   <g id="patch_11">
    <path clip-path="url(#p1fa9e02d4b)" d="M 541.98 492.302061 
L 586.62 492.302061 
L 586.62 491.946235 
L 541.98 491.946235 
L 541.98 492.302061 
z
" style="fill:#a9aa35;stroke:#3d3d3d;stroke-linejoin:miter;stroke-width:1.5;"/>
   </g>
   <g id="patch_12">
    <path clip-path="url(#p1fa9e02d4b)" d="M 597.78 492.42962 
L 642.42 492.42962 
L 642.42 492.34021 
L 597.78 492.34021 
L 597.78 492.42962 
z
" style="fill:#2eabb8;stroke:#3d3d3d;stroke-linejoin:miter;stroke-width:1.5;"/>
   </g>
   <g id="matplotlib.axis_1">
    <g id="xtick_1">
     <g id="line2d_1">
      <defs>
       <path d="M 0 0 
L 0 3.5 
" id="m2a0bc4fe8a" style="stroke:#000000;stroke-width:0.8;"/>
      </defs>
      <g>
       <use style="stroke:#000000;stroke-width:0.8;" x="117.9" xlink:href="#m2a0bc4fe8a" y="512.64"/>
      </g>
     </g>
     <g id="text_1">
      <!-- (30, 0.75, 0.3) -->
      <defs>
       <path d="M 31 75.875 
Q 24.46875 64.65625 21.28125 53.65625 
Q 18.109375 42.671875 18.109375 31.390625 
Q 18.109375 20.125 21.3125 9.0625 
Q 24.515625 -2 31 -13.1875 
L 23.1875 -13.1875 
Q 15.875 -1.703125 12.234375 9.375 
Q 8.59375 20.453125 8.59375 31.390625 
Q 8.59375 42.28125 12.203125 53.3125 
Q 15.828125 64.359375 23.1875 75.875 
z
" id="DejaVuSans-40"/>
       <path d="M 40.578125 39.3125 
Q 47.65625 37.796875 51.625 33 
Q 55.609375 28.21875 55.609375 21.1875 
Q 55.609375 10.40625 48.1875 4.484375 
Q 40.765625 -1.421875 27.09375 -1.421875 
Q 22.515625 -1.421875 17.65625 -0.515625 
Q 12.796875 0.390625 7.625 2.203125 
L 7.625 11.71875 
Q 11.71875 9.328125 16.59375 8.109375 
Q 21.484375 6.890625 26.8125 6.890625 
Q 36.078125 6.890625 40.9375 10.546875 
Q 45.796875 14.203125 45.796875 21.1875 
Q 45.796875 27.640625 41.28125 31.265625 
Q 36.765625 34.90625 28.71875 34.90625 
L 20.21875 34.90625 
L 20.21875 43.015625 
L 29.109375 43.015625 
Q 36.375 43.015625 40.234375 45.921875 
Q 44.09375 48.828125 44.09375 54.296875 
Q 44.09375 59.90625 40.109375 62.90625 
Q 36.140625 65.921875 28.71875 65.921875 
Q 24.65625 65.921875 20.015625 65.03125 
Q 15.375 64.15625 9.8125 62.3125 
L 9.8125 71.09375 
Q 15.4375 72.65625 20.34375 73.4375 
Q 25.25 74.21875 29.59375 74.21875 
Q 40.828125 74.21875 47.359375 69.109375 
Q 53.90625 64.015625 53.90625 55.328125 
Q 53.90625 49.265625 50.4375 45.09375 
Q 46.96875 40.921875 40.578125 39.3125 
z
" id="DejaVuSans-51"/>
       <path d="M 31.78125 66.40625 
Q 24.171875 66.40625 20.328125 58.90625 
Q 16.5 51.421875 16.5 36.375 
Q 16.5 21.390625 20.328125 13.890625 
Q 24.171875 6.390625 31.78125 6.390625 
Q 39.453125 6.390625 43.28125 13.890625 
Q 47.125 21.390625 47.125 36.375 
Q 47.125 51.421875 43.28125 58.90625 
Q 39.453125 66.40625 31.78125 66.40625 
z
M 31.78125 74.21875 
Q 44.046875 74.21875 50.515625 64.515625 
Q 56.984375 54.828125 56.984375 36.375 
Q 56.984375 17.96875 50.515625 8.265625 
Q 44.046875 -1.421875 31.78125 -1.421875 
Q 19.53125 -1.421875 13.0625 8.265625 
Q 6.59375 17.96875 6.59375 36.375 
Q 6.59375 54.828125 13.0625 64.515625 
Q 19.53125 74.21875 31.78125 74.21875 
z
" id="DejaVuSans-48"/>
       <path d="M 11.71875 12.40625 
L 22.015625 12.40625 
L 22.015625 4 
L 14.015625 -11.625 
L 7.71875 -11.625 
L 11.71875 4 
z
" id="DejaVuSans-44"/>
       <path id="DejaVuSans-32"/>
       <path d="M 10.6875 12.40625 
L 21 12.40625 
L 21 0 
L 10.6875 0 
z
" id="DejaVuSans-46"/>
       <path d="M 8.203125 72.90625 
L 55.078125 72.90625 
L 55.078125 68.703125 
L 28.609375 0 
L 18.3125 0 
L 43.21875 64.59375 
L 8.203125 64.59375 
z
" id="DejaVuSans-55"/>
       <path d="M 10.796875 72.90625 
L 49.515625 72.90625 
L 49.515625 64.59375 
L 19.828125 64.59375 
L 19.828125 46.734375 
Q 21.96875 47.46875 24.109375 47.828125 
Q 26.265625 48.1875 28.421875 48.1875 
Q 40.625 48.1875 47.75 41.5 
Q 54.890625 34.8125 54.890625 23.390625 
Q 54.890625 11.625 47.5625 5.09375 
Q 40.234375 -1.421875 26.90625 -1.421875 
Q 22.3125 -1.421875 17.546875 -0.640625 
Q 12.796875 0.140625 7.71875 1.703125 
L 7.71875 11.625 
Q 12.109375 9.234375 16.796875 8.0625 
Q 21.484375 6.890625 26.703125 6.890625 
Q 35.15625 6.890625 40.078125 11.328125 
Q 45.015625 15.765625 45.015625 23.390625 
Q 45.015625 31 40.078125 35.4375 
Q 35.15625 39.890625 26.703125 39.890625 
Q 22.75 39.890625 18.8125 39.015625 
Q 14.890625 38.140625 10.796875 36.28125 
z
" id="DejaVuSans-53"/>
       <path d="M 8.015625 75.875 
L 15.828125 75.875 
Q 23.140625 64.359375 26.78125 53.3125 
Q 30.421875 42.28125 30.421875 31.390625 
Q 30.421875 20.453125 26.78125 9.375 
Q 23.140625 -1.703125 15.828125 -13.1875 
L 8.015625 -13.1875 
Q 14.5 -2 17.703125 9.0625 
Q 20.90625 20.125 20.90625 31.390625 
Q 20.90625 42.671875 17.703125 53.65625 
Q 14.5 64.65625 8.015625 75.875 
z
" id="DejaVuSans-41"/>
      </defs>
      <g transform="translate(94.604146 575.50696)rotate(-45)scale(0.1 -0.1)">
       <use xlink:href="#DejaVuSans-40"/>
       <use x="39.013672" xlink:href="#DejaVuSans-51"/>
       <use x="102.636719" xlink:href="#DejaVuSans-48"/>
       <use x="166.259766" xlink:href="#DejaVuSans-44"/>
       <use x="198.046875" xlink:href="#DejaVuSans-32"/>
       <use x="229.833984" xlink:href="#DejaVuSans-48"/>
       <use x="293.457031" xlink:href="#DejaVuSans-46"/>
       <use x="325.244141" xlink:href="#DejaVuSans-55"/>
       <use x="388.867188" xlink:href="#DejaVuSans-53"/>
       <use x="452.490234" xlink:href="#DejaVuSans-44"/>
       <use x="484.277344" xlink:href="#DejaVuSans-32"/>
       <use x="516.064453" xlink:href="#DejaVuSans-48"/>
       <use x="579.6875" xlink:href="#DejaVuSans-46"/>
       <use x="611.474609" xlink:href="#DejaVuSans-51"/>
       <use x="675.097656" xlink:href="#DejaVuSans-41"/>
      </g>
     </g>
    </g>
    <g id="xtick_2">
     <g id="line2d_2">
      <g>
       <use style="stroke:#000000;stroke-width:0.8;" x="173.7" xlink:href="#m2a0bc4fe8a" y="512.64"/>
      </g>
     </g>
     <g id="text_2">
      <!-- (30, 0.85, 0.3) -->
      <defs>
       <path d="M 31.78125 34.625 
Q 24.75 34.625 20.71875 30.859375 
Q 16.703125 27.09375 16.703125 20.515625 
Q 16.703125 13.921875 20.71875 10.15625 
Q 24.75 6.390625 31.78125 6.390625 
Q 38.8125 6.390625 42.859375 10.171875 
Q 46.921875 13.96875 46.921875 20.515625 
Q 46.921875 27.09375 42.890625 30.859375 
Q 38.875 34.625 31.78125 34.625 
z
M 21.921875 38.8125 
Q 15.578125 40.375 12.03125 44.71875 
Q 8.5 49.078125 8.5 55.328125 
Q 8.5 64.0625 14.71875 69.140625 
Q 20.953125 74.21875 31.78125 74.21875 
Q 42.671875 74.21875 48.875 69.140625 
Q 55.078125 64.0625 55.078125 55.328125 
Q 55.078125 49.078125 51.53125 44.71875 
Q 48 40.375 41.703125 38.8125 
Q 48.828125 37.15625 52.796875 32.3125 
Q 56.78125 27.484375 56.78125 20.515625 
Q 56.78125 9.90625 50.3125 4.234375 
Q 43.84375 -1.421875 31.78125 -1.421875 
Q 19.734375 -1.421875 13.25 4.234375 
Q 6.78125 9.90625 6.78125 20.515625 
Q 6.78125 27.484375 10.78125 32.3125 
Q 14.796875 37.15625 21.921875 38.8125 
z
M 18.3125 54.390625 
Q 18.3125 48.734375 21.84375 45.5625 
Q 25.390625 42.390625 31.78125 42.390625 
Q 38.140625 42.390625 41.71875 45.5625 
Q 45.3125 48.734375 45.3125 54.390625 
Q 45.3125 60.0625 41.71875 63.234375 
Q 38.140625 66.40625 31.78125 66.40625 
Q 25.390625 66.40625 21.84375 63.234375 
Q 18.3125 60.0625 18.3125 54.390625 
z
" id="DejaVuSans-56"/>
      </defs>
      <g transform="translate(150.404146 575.50696)rotate(-45)scale(0.1 -0.1)">
       <use xlink:href="#DejaVuSans-40"/>
       <use x="39.013672" xlink:href="#DejaVuSans-51"/>
       <use x="102.636719" xlink:href="#DejaVuSans-48"/>
       <use x="166.259766" xlink:href="#DejaVuSans-44"/>
       <use x="198.046875" xlink:href="#DejaVuSans-32"/>
       <use x="229.833984" xlink:href="#DejaVuSans-48"/>
       <use x="293.457031" xlink:href="#DejaVuSans-46"/>
       <use x="325.244141" xlink:href="#DejaVuSans-56"/>
       <use x="388.867188" xlink:href="#DejaVuSans-53"/>
       <use x="452.490234" xlink:href="#DejaVuSans-44"/>
       <use x="484.277344" xlink:href="#DejaVuSans-32"/>
       <use x="516.064453" xlink:href="#DejaVuSans-48"/>
       <use x="579.6875" xlink:href="#DejaVuSans-46"/>
       <use x="611.474609" xlink:href="#DejaVuSans-51"/>
       <use x="675.097656" xlink:href="#DejaVuSans-41"/>
      </g>
     </g>
    </g>
    <g id="xtick_3">
     <g id="line2d_3">
      <g>
       <use style="stroke:#000000;stroke-width:0.8;" x="229.5" xlink:href="#m2a0bc4fe8a" y="512.64"/>
      </g>
     </g>
     <g id="text_3">
      <!-- (20, 0.75, 0.3) -->
      <defs>
       <path d="M 19.1875 8.296875 
L 53.609375 8.296875 
L 53.609375 0 
L 7.328125 0 
L 7.328125 8.296875 
Q 12.9375 14.109375 22.625 23.890625 
Q 32.328125 33.6875 34.8125 36.53125 
Q 39.546875 41.84375 41.421875 45.53125 
Q 43.3125 49.21875 43.3125 52.78125 
Q 43.3125 58.59375 39.234375 62.25 
Q 35.15625 65.921875 28.609375 65.921875 
Q 23.96875 65.921875 18.8125 64.3125 
Q 13.671875 62.703125 7.8125 59.421875 
L 7.8125 69.390625 
Q 13.765625 71.78125 18.9375 73 
Q 24.125 74.21875 28.421875 74.21875 
Q 39.75 74.21875 46.484375 68.546875 
Q 53.21875 62.890625 53.21875 53.421875 
Q 53.21875 48.921875 51.53125 44.890625 
Q 49.859375 40.875 45.40625 35.40625 
Q 44.1875 33.984375 37.640625 27.21875 
Q 31.109375 20.453125 19.1875 8.296875 
z
" id="DejaVuSans-50"/>
      </defs>
      <g transform="translate(206.204146 575.50696)rotate(-45)scale(0.1 -0.1)">
       <use xlink:href="#DejaVuSans-40"/>
       <use x="39.013672" xlink:href="#DejaVuSans-50"/>
       <use x="102.636719" xlink:href="#DejaVuSans-48"/>
       <use x="166.259766" xlink:href="#DejaVuSans-44"/>
       <use x="198.046875" xlink:href="#DejaVuSans-32"/>
       <use x="229.833984" xlink:href="#DejaVuSans-48"/>
       <use x="293.457031" xlink:href="#DejaVuSans-46"/>
       <use x="325.244141" xlink:href="#DejaVuSans-55"/>
       <use x="388.867188" xlink:href="#DejaVuSans-53"/>
       <use x="452.490234" xlink:href="#DejaVuSans-44"/>
       <use x="484.277344" xlink:href="#DejaVuSans-32"/>
       <use x="516.064453" xlink:href="#DejaVuSans-48"/>
       <use x="579.6875" xlink:href="#DejaVuSans-46"/>
       <use x="611.474609" xlink:href="#DejaVuSans-51"/>
       <use x="675.097656" xlink:href="#DejaVuSans-41"/>
      </g>
     </g>
    </g>
    <g id="xtick_4">
     <g id="line2d_4">
      <g>
       <use style="stroke:#000000;stroke-width:0.8;" x="285.3" xlink:href="#m2a0bc4fe8a" y="512.64"/>
      </g>
     </g>
     <g id="text_4">
      <!-- (30, 0.75, 0.2) -->
      <g transform="translate(262.004146 575.50696)rotate(-45)scale(0.1 -0.1)">
       <use xlink:href="#DejaVuSans-40"/>
       <use x="39.013672" xlink:href="#DejaVuSans-51"/>
       <use x="102.636719" xlink:href="#DejaVuSans-48"/>
       <use x="166.259766" xlink:href="#DejaVuSans-44"/>
       <use x="198.046875" xlink:href="#DejaVuSans-32"/>
       <use x="229.833984" xlink:href="#DejaVuSans-48"/>
       <use x="293.457031" xlink:href="#DejaVuSans-46"/>
       <use x="325.244141" xlink:href="#DejaVuSans-55"/>
       <use x="388.867188" xlink:href="#DejaVuSans-53"/>
       <use x="452.490234" xlink:href="#DejaVuSans-44"/>
       <use x="484.277344" xlink:href="#DejaVuSans-32"/>
       <use x="516.064453" xlink:href="#DejaVuSans-48"/>
       <use x="579.6875" xlink:href="#DejaVuSans-46"/>
       <use x="611.474609" xlink:href="#DejaVuSans-50"/>
       <use x="675.097656" xlink:href="#DejaVuSans-41"/>
      </g>
     </g>
    </g>
    <g id="xtick_5">
     <g id="line2d_5">
      <g>
       <use style="stroke:#000000;stroke-width:0.8;" x="341.1" xlink:href="#m2a0bc4fe8a" y="512.64"/>
      </g>
     </g>
     <g id="text_5">
      <!-- (20, 0.95, 0.3) -->
      <defs>
       <path d="M 10.984375 1.515625 
L 10.984375 10.5 
Q 14.703125 8.734375 18.5 7.8125 
Q 22.3125 6.890625 25.984375 6.890625 
Q 35.75 6.890625 40.890625 13.453125 
Q 46.046875 20.015625 46.78125 33.40625 
Q 43.953125 29.203125 39.59375 26.953125 
Q 35.25 24.703125 29.984375 24.703125 
Q 19.046875 24.703125 12.671875 31.3125 
Q 6.296875 37.9375 6.296875 49.421875 
Q 6.296875 60.640625 12.9375 67.421875 
Q 19.578125 74.21875 30.609375 74.21875 
Q 43.265625 74.21875 49.921875 64.515625 
Q 56.59375 54.828125 56.59375 36.375 
Q 56.59375 19.140625 48.40625 8.859375 
Q 40.234375 -1.421875 26.421875 -1.421875 
Q 22.703125 -1.421875 18.890625 -0.6875 
Q 15.09375 0.046875 10.984375 1.515625 
z
M 30.609375 32.421875 
Q 37.25 32.421875 41.125 36.953125 
Q 45.015625 41.5 45.015625 49.421875 
Q 45.015625 57.28125 41.125 61.84375 
Q 37.25 66.40625 30.609375 66.40625 
Q 23.96875 66.40625 20.09375 61.84375 
Q 16.21875 57.28125 16.21875 49.421875 
Q 16.21875 41.5 20.09375 36.953125 
Q 23.96875 32.421875 30.609375 32.421875 
z
" id="DejaVuSans-57"/>
      </defs>
      <g transform="translate(317.804146 575.50696)rotate(-45)scale(0.1 -0.1)">
       <use xlink:href="#DejaVuSans-40"/>
       <use x="39.013672" xlink:href="#DejaVuSans-50"/>
       <use x="102.636719" xlink:href="#DejaVuSans-48"/>
       <use x="166.259766" xlink:href="#DejaVuSans-44"/>
       <use x="198.046875" xlink:href="#DejaVuSans-32"/>
       <use x="229.833984" xlink:href="#DejaVuSans-48"/>
       <use x="293.457031" xlink:href="#DejaVuSans-46"/>
       <use x="325.244141" xlink:href="#DejaVuSans-57"/>
       <use x="388.867188" xlink:href="#DejaVuSans-53"/>
       <use x="452.490234" xlink:href="#DejaVuSans-44"/>
       <use x="484.277344" xlink:href="#DejaVuSans-32"/>
       <use x="516.064453" xlink:href="#DejaVuSans-48"/>
       <use x="579.6875" xlink:href="#DejaVuSans-46"/>
       <use x="611.474609" xlink:href="#DejaVuSans-51"/>
       <use x="675.097656" xlink:href="#DejaVuSans-41"/>
      </g>
     </g>
    </g>
    <g id="xtick_6">
     <g id="line2d_6">
      <g>
       <use style="stroke:#000000;stroke-width:0.8;" x="396.9" xlink:href="#m2a0bc4fe8a" y="512.64"/>
      </g>
     </g>
     <g id="text_6">
      <!-- (30, 0.95, 0.2) -->
      <g transform="translate(373.604146 575.50696)rotate(-45)scale(0.1 -0.1)">
       <use xlink:href="#DejaVuSans-40"/>
       <use x="39.013672" xlink:href="#DejaVuSans-51"/>
       <use x="102.636719" xlink:href="#DejaVuSans-48"/>
       <use x="166.259766" xlink:href="#DejaVuSans-44"/>
       <use x="198.046875" xlink:href="#DejaVuSans-32"/>
       <use x="229.833984" xlink:href="#DejaVuSans-48"/>
       <use x="293.457031" xlink:href="#DejaVuSans-46"/>
       <use x="325.244141" xlink:href="#DejaVuSans-57"/>
       <use x="388.867188" xlink:href="#DejaVuSans-53"/>
       <use x="452.490234" xlink:href="#DejaVuSans-44"/>
       <use x="484.277344" xlink:href="#DejaVuSans-32"/>
       <use x="516.064453" xlink:href="#DejaVuSans-48"/>
       <use x="579.6875" xlink:href="#DejaVuSans-46"/>
       <use x="611.474609" xlink:href="#DejaVuSans-50"/>
       <use x="675.097656" xlink:href="#DejaVuSans-41"/>
      </g>
     </g>
    </g>
    <g id="xtick_7">
     <g id="line2d_7">
      <g>
       <use style="stroke:#000000;stroke-width:0.8;" x="452.7" xlink:href="#m2a0bc4fe8a" y="512.64"/>
      </g>
     </g>
     <g id="text_7">
      <!-- (20, 0.85, 0.2) -->
      <g transform="translate(429.404146 575.50696)rotate(-45)scale(0.1 -0.1)">
       <use xlink:href="#DejaVuSans-40"/>
       <use x="39.013672" xlink:href="#DejaVuSans-50"/>
       <use x="102.636719" xlink:href="#DejaVuSans-48"/>
       <use x="166.259766" xlink:href="#DejaVuSans-44"/>
       <use x="198.046875" xlink:href="#DejaVuSans-32"/>
       <use x="229.833984" xlink:href="#DejaVuSans-48"/>
       <use x="293.457031" xlink:href="#DejaVuSans-46"/>
       <use x="325.244141" xlink:href="#DejaVuSans-56"/>
       <use x="388.867188" xlink:href="#DejaVuSans-53"/>
       <use x="452.490234" xlink:href="#DejaVuSans-44"/>
       <use x="484.277344" xlink:href="#DejaVuSans-32"/>
       <use x="516.064453" xlink:href="#DejaVuSans-48"/>
       <use x="579.6875" xlink:href="#DejaVuSans-46"/>
       <use x="611.474609" xlink:href="#DejaVuSans-50"/>
       <use x="675.097656" xlink:href="#DejaVuSans-41"/>
      </g>
     </g>
    </g>
    <g id="xtick_8">
     <g id="line2d_8">
      <g>
       <use style="stroke:#000000;stroke-width:0.8;" x="508.5" xlink:href="#m2a0bc4fe8a" y="512.64"/>
      </g>
     </g>
     <g id="text_8">
      <!-- (10, 0.75, 0.3) -->
      <defs>
       <path d="M 12.40625 8.296875 
L 28.515625 8.296875 
L 28.515625 63.921875 
L 10.984375 60.40625 
L 10.984375 69.390625 
L 28.421875 72.90625 
L 38.28125 72.90625 
L 38.28125 8.296875 
L 54.390625 8.296875 
L 54.390625 0 
L 12.40625 0 
z
" id="DejaVuSans-49"/>
      </defs>
      <g transform="translate(485.204146 575.50696)rotate(-45)scale(0.1 -0.1)">
       <use xlink:href="#DejaVuSans-40"/>
       <use x="39.013672" xlink:href="#DejaVuSans-49"/>
       <use x="102.636719" xlink:href="#DejaVuSans-48"/>
       <use x="166.259766" xlink:href="#DejaVuSans-44"/>
       <use x="198.046875" xlink:href="#DejaVuSans-32"/>
       <use x="229.833984" xlink:href="#DejaVuSans-48"/>
       <use x="293.457031" xlink:href="#DejaVuSans-46"/>
       <use x="325.244141" xlink:href="#DejaVuSans-55"/>
       <use x="388.867188" xlink:href="#DejaVuSans-53"/>
       <use x="452.490234" xlink:href="#DejaVuSans-44"/>
       <use x="484.277344" xlink:href="#DejaVuSans-32"/>
       <use x="516.064453" xlink:href="#DejaVuSans-48"/>
       <use x="579.6875" xlink:href="#DejaVuSans-46"/>
       <use x="611.474609" xlink:href="#DejaVuSans-51"/>
       <use x="675.097656" xlink:href="#DejaVuSans-41"/>
      </g>
     </g>
    </g>
    <g id="xtick_9">
     <g id="line2d_9">
      <g>
       <use style="stroke:#000000;stroke-width:0.8;" x="564.3" xlink:href="#m2a0bc4fe8a" y="512.64"/>
      </g>
     </g>
     <g id="text_9">
      <!-- (20, 0.85, 0.3) -->
      <g transform="translate(541.004146 575.50696)rotate(-45)scale(0.1 -0.1)">
       <use xlink:href="#DejaVuSans-40"/>
       <use x="39.013672" xlink:href="#DejaVuSans-50"/>
       <use x="102.636719" xlink:href="#DejaVuSans-48"/>
       <use x="166.259766" xlink:href="#DejaVuSans-44"/>
       <use x="198.046875" xlink:href="#DejaVuSans-32"/>
       <use x="229.833984" xlink:href="#DejaVuSans-48"/>
       <use x="293.457031" xlink:href="#DejaVuSans-46"/>
       <use x="325.244141" xlink:href="#DejaVuSans-56"/>
       <use x="388.867188" xlink:href="#DejaVuSans-53"/>
       <use x="452.490234" xlink:href="#DejaVuSans-44"/>
       <use x="484.277344" xlink:href="#DejaVuSans-32"/>
       <use x="516.064453" xlink:href="#DejaVuSans-48"/>
       <use x="579.6875" xlink:href="#DejaVuSans-46"/>
       <use x="611.474609" xlink:href="#DejaVuSans-51"/>
       <use x="675.097656" xlink:href="#DejaVuSans-41"/>
      </g>
     </g>
    </g>
    <g id="xtick_10">
     <g id="line2d_10">
      <g>
       <use style="stroke:#000000;stroke-width:0.8;" x="620.1" xlink:href="#m2a0bc4fe8a" y="512.64"/>
      </g>
     </g>
     <g id="text_10">
      <!-- (10, 0.95, 0.3) -->
      <g transform="translate(596.804146 575.50696)rotate(-45)scale(0.1 -0.1)">
       <use xlink:href="#DejaVuSans-40"/>
       <use x="39.013672" xlink:href="#DejaVuSans-49"/>
       <use x="102.636719" xlink:href="#DejaVuSans-48"/>
       <use x="166.259766" xlink:href="#DejaVuSans-44"/>
       <use x="198.046875" xlink:href="#DejaVuSans-32"/>
       <use x="229.833984" xlink:href="#DejaVuSans-48"/>
       <use x="293.457031" xlink:href="#DejaVuSans-46"/>
       <use x="325.244141" xlink:href="#DejaVuSans-57"/>
       <use x="388.867188" xlink:href="#DejaVuSans-53"/>
       <use x="452.490234" xlink:href="#DejaVuSans-44"/>
       <use x="484.277344" xlink:href="#DejaVuSans-32"/>
       <use x="516.064453" xlink:href="#DejaVuSans-48"/>
       <use x="579.6875" xlink:href="#DejaVuSans-46"/>
       <use x="611.474609" xlink:href="#DejaVuSans-51"/>
       <use x="675.097656" xlink:href="#DejaVuSans-41"/>
      </g>
     </g>
    </g>
    <g id="text_11">
     <!-- Combinações de hiperparâmetros -->
     <defs>
      <path d="M 64.40625 67.28125 
L 64.40625 56.890625 
Q 59.421875 61.53125 53.78125 63.8125 
Q 48.140625 66.109375 41.796875 66.109375 
Q 29.296875 66.109375 22.65625 58.46875 
Q 16.015625 50.828125 16.015625 36.375 
Q 16.015625 21.96875 22.65625 14.328125 
Q 29.296875 6.6875 41.796875 6.6875 
Q 48.140625 6.6875 53.78125 8.984375 
Q 59.421875 11.28125 64.40625 15.921875 
L 64.40625 5.609375 
Q 59.234375 2.09375 53.4375 0.328125 
Q 47.65625 -1.421875 41.21875 -1.421875 
Q 24.65625 -1.421875 15.125 8.703125 
Q 5.609375 18.84375 5.609375 36.375 
Q 5.609375 53.953125 15.125 64.078125 
Q 24.65625 74.21875 41.21875 74.21875 
Q 47.75 74.21875 53.53125 72.484375 
Q 59.328125 70.75 64.40625 67.28125 
z
" id="DejaVuSans-67"/>
      <path d="M 30.609375 48.390625 
Q 23.390625 48.390625 19.1875 42.75 
Q 14.984375 37.109375 14.984375 27.296875 
Q 14.984375 17.484375 19.15625 11.84375 
Q 23.34375 6.203125 30.609375 6.203125 
Q 37.796875 6.203125 41.984375 11.859375 
Q 46.1875 17.53125 46.1875 27.296875 
Q 46.1875 37.015625 41.984375 42.703125 
Q 37.796875 48.390625 30.609375 48.390625 
z
M 30.609375 56 
Q 42.328125 56 49.015625 48.375 
Q 55.71875 40.765625 55.71875 27.296875 
Q 55.71875 13.875 49.015625 6.21875 
Q 42.328125 -1.421875 30.609375 -1.421875 
Q 18.84375 -1.421875 12.171875 6.21875 
Q 5.515625 13.875 5.515625 27.296875 
Q 5.515625 40.765625 12.171875 48.375 
Q 18.84375 56 30.609375 56 
z
" id="DejaVuSans-111"/>
      <path d="M 52 44.1875 
Q 55.375 50.25 60.0625 53.125 
Q 64.75 56 71.09375 56 
Q 79.640625 56 84.28125 50.015625 
Q 88.921875 44.046875 88.921875 33.015625 
L 88.921875 0 
L 79.890625 0 
L 79.890625 32.71875 
Q 79.890625 40.578125 77.09375 44.375 
Q 74.3125 48.1875 68.609375 48.1875 
Q 61.625 48.1875 57.5625 43.546875 
Q 53.515625 38.921875 53.515625 30.90625 
L 53.515625 0 
L 44.484375 0 
L 44.484375 32.71875 
Q 44.484375 40.625 41.703125 44.40625 
Q 38.921875 48.1875 33.109375 48.1875 
Q 26.21875 48.1875 22.15625 43.53125 
Q 18.109375 38.875 18.109375 30.90625 
L 18.109375 0 
L 9.078125 0 
L 9.078125 54.6875 
L 18.109375 54.6875 
L 18.109375 46.1875 
Q 21.1875 51.21875 25.484375 53.609375 
Q 29.78125 56 35.6875 56 
Q 41.65625 56 45.828125 52.96875 
Q 50 49.953125 52 44.1875 
z
" id="DejaVuSans-109"/>
      <path d="M 48.6875 27.296875 
Q 48.6875 37.203125 44.609375 42.84375 
Q 40.53125 48.484375 33.40625 48.484375 
Q 26.265625 48.484375 22.1875 42.84375 
Q 18.109375 37.203125 18.109375 27.296875 
Q 18.109375 17.390625 22.1875 11.75 
Q 26.265625 6.109375 33.40625 6.109375 
Q 40.53125 6.109375 44.609375 11.75 
Q 48.6875 17.390625 48.6875 27.296875 
z
M 18.109375 46.390625 
Q 20.953125 51.265625 25.265625 53.625 
Q 29.59375 56 35.59375 56 
Q 45.5625 56 51.78125 48.09375 
Q 58.015625 40.1875 58.015625 27.296875 
Q 58.015625 14.40625 51.78125 6.484375 
Q 45.5625 -1.421875 35.59375 -1.421875 
Q 29.59375 -1.421875 25.265625 0.953125 
Q 20.953125 3.328125 18.109375 8.203125 
L 18.109375 0 
L 9.078125 0 
L 9.078125 75.984375 
L 18.109375 75.984375 
z
" id="DejaVuSans-98"/>
      <path d="M 9.421875 54.6875 
L 18.40625 54.6875 
L 18.40625 0 
L 9.421875 0 
z
M 9.421875 75.984375 
L 18.40625 75.984375 
L 18.40625 64.59375 
L 9.421875 64.59375 
z
" id="DejaVuSans-105"/>
      <path d="M 54.890625 33.015625 
L 54.890625 0 
L 45.90625 0 
L 45.90625 32.71875 
Q 45.90625 40.484375 42.875 44.328125 
Q 39.84375 48.1875 33.796875 48.1875 
Q 26.515625 48.1875 22.3125 43.546875 
Q 18.109375 38.921875 18.109375 30.90625 
L 18.109375 0 
L 9.078125 0 
L 9.078125 54.6875 
L 18.109375 54.6875 
L 18.109375 46.1875 
Q 21.34375 51.125 25.703125 53.5625 
Q 30.078125 56 35.796875 56 
Q 45.21875 56 50.046875 50.171875 
Q 54.890625 44.34375 54.890625 33.015625 
z
" id="DejaVuSans-110"/>
      <path d="M 34.28125 27.484375 
Q 23.390625 27.484375 19.1875 25 
Q 14.984375 22.515625 14.984375 16.5 
Q 14.984375 11.71875 18.140625 8.90625 
Q 21.296875 6.109375 26.703125 6.109375 
Q 34.1875 6.109375 38.703125 11.40625 
Q 43.21875 16.703125 43.21875 25.484375 
L 43.21875 27.484375 
z
M 52.203125 31.203125 
L 52.203125 0 
L 43.21875 0 
L 43.21875 8.296875 
Q 40.140625 3.328125 35.546875 0.953125 
Q 30.953125 -1.421875 24.3125 -1.421875 
Q 15.921875 -1.421875 10.953125 3.296875 
Q 6 8.015625 6 15.921875 
Q 6 25.140625 12.171875 29.828125 
Q 18.359375 34.515625 30.609375 34.515625 
L 43.21875 34.515625 
L 43.21875 35.40625 
Q 43.21875 41.609375 39.140625 45 
Q 35.0625 48.390625 27.6875 48.390625 
Q 23 48.390625 18.546875 47.265625 
Q 14.109375 46.140625 10.015625 43.890625 
L 10.015625 52.203125 
Q 14.9375 54.109375 19.578125 55.046875 
Q 24.21875 56 28.609375 56 
Q 40.484375 56 46.34375 49.84375 
Q 52.203125 43.703125 52.203125 31.203125 
z
" id="DejaVuSans-97"/>
      <path d="M 48.78125 52.59375 
L 48.78125 44.1875 
Q 44.96875 46.296875 41.140625 47.34375 
Q 37.3125 48.390625 33.40625 48.390625 
Q 24.65625 48.390625 19.8125 42.84375 
Q 14.984375 37.3125 14.984375 27.296875 
Q 14.984375 17.28125 19.8125 11.734375 
Q 24.65625 6.203125 33.40625 6.203125 
Q 37.3125 6.203125 41.140625 7.25 
Q 44.96875 8.296875 48.78125 10.40625 
L 48.78125 2.09375 
Q 45.015625 0.34375 40.984375 -0.53125 
Q 36.96875 -1.421875 32.421875 -1.421875 
Q 20.0625 -1.421875 12.78125 6.34375 
Q 5.515625 14.109375 5.515625 27.296875 
Q 5.515625 40.671875 12.859375 48.328125 
Q 20.21875 56 33.015625 56 
Q 37.15625 56 41.109375 55.140625 
Q 45.0625 54.296875 48.78125 52.59375 
z
M 36.078125 0 
Q 38.765625 -3.03125 40.078125 -5.59375 
Q 41.40625 -8.15625 41.40625 -10.5 
Q 41.40625 -14.84375 38.46875 -17.0625 
Q 35.546875 -19.28125 29.78125 -19.28125 
Q 27.546875 -19.28125 25.421875 -18.984375 
Q 23.296875 -18.703125 21.1875 -18.109375 
L 21.1875 -11.71875 
Q 22.859375 -12.546875 24.65625 -12.90625 
Q 26.46875 -13.28125 28.765625 -13.28125 
Q 31.640625 -13.28125 33.109375 -12.109375 
Q 34.578125 -10.9375 34.578125 -8.6875 
Q 34.578125 -7.234375 33.515625 -5.109375 
Q 32.46875 -2.984375 30.28125 0 
z
" id="DejaVuSans-231"/>
      <path d="M 30.609375 48.390625 
Q 23.390625 48.390625 19.1875 42.75 
Q 14.984375 37.109375 14.984375 27.296875 
Q 14.984375 17.484375 19.15625 11.84375 
Q 23.34375 6.203125 30.609375 6.203125 
Q 37.796875 6.203125 41.984375 11.859375 
Q 46.1875 17.53125 46.1875 27.296875 
Q 46.1875 37.015625 41.984375 42.703125 
Q 37.796875 48.390625 30.609375 48.390625 
z
M 30.609375 56 
Q 42.328125 56 49.015625 48.375 
Q 55.71875 40.765625 55.71875 27.296875 
Q 55.71875 13.875 49.015625 6.21875 
Q 42.328125 -1.421875 30.609375 -1.421875 
Q 18.84375 -1.421875 12.171875 6.21875 
Q 5.515625 13.875 5.515625 27.296875 
Q 5.515625 40.765625 12.171875 48.375 
Q 18.84375 56 30.609375 56 
z
M 30.421875 66.890625 
L 27.640625 69.578125 
Q 26.5625 70.5625 25.75 71.015625 
Q 24.953125 71.484375 24.3125 71.484375 
Q 22.46875 71.484375 21.578125 69.703125 
Q 20.703125 67.921875 20.609375 63.921875 
L 14.5 63.921875 
Q 14.59375 70.515625 17.078125 74.09375 
Q 19.578125 77.6875 24.03125 77.6875 
Q 25.875 77.6875 27.4375 77 
Q 29 76.3125 30.8125 74.703125 
L 33.59375 72.015625 
Q 34.671875 71.046875 35.46875 70.578125 
Q 36.28125 70.125 36.921875 70.125 
Q 38.765625 70.125 39.640625 71.90625 
Q 40.53125 73.6875 40.625 77.6875 
L 46.734375 77.6875 
Q 46.625 71.09375 44.140625 67.5 
Q 41.65625 63.921875 37.203125 63.921875 
Q 35.359375 63.921875 33.796875 64.59375 
Q 32.234375 65.28125 30.421875 66.890625 
z
" id="DejaVuSans-245"/>
      <path d="M 56.203125 29.59375 
L 56.203125 25.203125 
L 14.890625 25.203125 
Q 15.484375 15.921875 20.484375 11.0625 
Q 25.484375 6.203125 34.421875 6.203125 
Q 39.59375 6.203125 44.453125 7.46875 
Q 49.3125 8.734375 54.109375 11.28125 
L 54.109375 2.78125 
Q 49.265625 0.734375 44.1875 -0.34375 
Q 39.109375 -1.421875 33.890625 -1.421875 
Q 20.796875 -1.421875 13.15625 6.1875 
Q 5.515625 13.8125 5.515625 26.8125 
Q 5.515625 40.234375 12.765625 48.109375 
Q 20.015625 56 32.328125 56 
Q 43.359375 56 49.78125 48.890625 
Q 56.203125 41.796875 56.203125 29.59375 
z
M 47.21875 32.234375 
Q 47.125 39.59375 43.09375 43.984375 
Q 39.0625 48.390625 32.421875 48.390625 
Q 24.90625 48.390625 20.390625 44.140625 
Q 15.875 39.890625 15.1875 32.171875 
z
" id="DejaVuSans-101"/>
      <path d="M 44.28125 53.078125 
L 44.28125 44.578125 
Q 40.484375 46.53125 36.375 47.5 
Q 32.28125 48.484375 27.875 48.484375 
Q 21.1875 48.484375 17.84375 46.4375 
Q 14.5 44.390625 14.5 40.28125 
Q 14.5 37.15625 16.890625 35.375 
Q 19.28125 33.59375 26.515625 31.984375 
L 29.59375 31.296875 
Q 39.15625 29.25 43.1875 25.515625 
Q 47.21875 21.78125 47.21875 15.09375 
Q 47.21875 7.46875 41.1875 3.015625 
Q 35.15625 -1.421875 24.609375 -1.421875 
Q 20.21875 -1.421875 15.453125 -0.5625 
Q 10.6875 0.296875 5.421875 2 
L 5.421875 11.28125 
Q 10.40625 8.6875 15.234375 7.390625 
Q 20.0625 6.109375 24.8125 6.109375 
Q 31.15625 6.109375 34.5625 8.28125 
Q 37.984375 10.453125 37.984375 14.40625 
Q 37.984375 18.0625 35.515625 20.015625 
Q 33.0625 21.96875 24.703125 23.78125 
L 21.578125 24.515625 
Q 13.234375 26.265625 9.515625 29.90625 
Q 5.8125 33.546875 5.8125 39.890625 
Q 5.8125 47.609375 11.28125 51.796875 
Q 16.75 56 26.8125 56 
Q 31.78125 56 36.171875 55.265625 
Q 40.578125 54.546875 44.28125 53.078125 
z
" id="DejaVuSans-115"/>
      <path d="M 45.40625 46.390625 
L 45.40625 75.984375 
L 54.390625 75.984375 
L 54.390625 0 
L 45.40625 0 
L 45.40625 8.203125 
Q 42.578125 3.328125 38.25 0.953125 
Q 33.9375 -1.421875 27.875 -1.421875 
Q 17.96875 -1.421875 11.734375 6.484375 
Q 5.515625 14.40625 5.515625 27.296875 
Q 5.515625 40.1875 11.734375 48.09375 
Q 17.96875 56 27.875 56 
Q 33.9375 56 38.25 53.625 
Q 42.578125 51.265625 45.40625 46.390625 
z
M 14.796875 27.296875 
Q 14.796875 17.390625 18.875 11.75 
Q 22.953125 6.109375 30.078125 6.109375 
Q 37.203125 6.109375 41.296875 11.75 
Q 45.40625 17.390625 45.40625 27.296875 
Q 45.40625 37.203125 41.296875 42.84375 
Q 37.203125 48.484375 30.078125 48.484375 
Q 22.953125 48.484375 18.875 42.84375 
Q 14.796875 37.203125 14.796875 27.296875 
z
" id="DejaVuSans-100"/>
      <path d="M 54.890625 33.015625 
L 54.890625 0 
L 45.90625 0 
L 45.90625 32.71875 
Q 45.90625 40.484375 42.875 44.328125 
Q 39.84375 48.1875 33.796875 48.1875 
Q 26.515625 48.1875 22.3125 43.546875 
Q 18.109375 38.921875 18.109375 30.90625 
L 18.109375 0 
L 9.078125 0 
L 9.078125 75.984375 
L 18.109375 75.984375 
L 18.109375 46.1875 
Q 21.34375 51.125 25.703125 53.5625 
Q 30.078125 56 35.796875 56 
Q 45.21875 56 50.046875 50.171875 
Q 54.890625 44.34375 54.890625 33.015625 
z
" id="DejaVuSans-104"/>
      <path d="M 18.109375 8.203125 
L 18.109375 -20.796875 
L 9.078125 -20.796875 
L 9.078125 54.6875 
L 18.109375 54.6875 
L 18.109375 46.390625 
Q 20.953125 51.265625 25.265625 53.625 
Q 29.59375 56 35.59375 56 
Q 45.5625 56 51.78125 48.09375 
Q 58.015625 40.1875 58.015625 27.296875 
Q 58.015625 14.40625 51.78125 6.484375 
Q 45.5625 -1.421875 35.59375 -1.421875 
Q 29.59375 -1.421875 25.265625 0.953125 
Q 20.953125 3.328125 18.109375 8.203125 
z
M 48.6875 27.296875 
Q 48.6875 37.203125 44.609375 42.84375 
Q 40.53125 48.484375 33.40625 48.484375 
Q 26.265625 48.484375 22.1875 42.84375 
Q 18.109375 37.203125 18.109375 27.296875 
Q 18.109375 17.390625 22.1875 11.75 
Q 26.265625 6.109375 33.40625 6.109375 
Q 40.53125 6.109375 44.609375 11.75 
Q 48.6875 17.390625 48.6875 27.296875 
z
" id="DejaVuSans-112"/>
      <path d="M 41.109375 46.296875 
Q 39.59375 47.171875 37.8125 47.578125 
Q 36.03125 48 33.890625 48 
Q 26.265625 48 22.1875 43.046875 
Q 18.109375 38.09375 18.109375 28.8125 
L 18.109375 0 
L 9.078125 0 
L 9.078125 54.6875 
L 18.109375 54.6875 
L 18.109375 46.1875 
Q 20.953125 51.171875 25.484375 53.578125 
Q 30.03125 56 36.53125 56 
Q 37.453125 56 38.578125 55.875 
Q 39.703125 55.765625 41.0625 55.515625 
z
" id="DejaVuSans-114"/>
      <path d="M 34.28125 27.484375 
Q 23.390625 27.484375 19.1875 25 
Q 14.984375 22.515625 14.984375 16.5 
Q 14.984375 11.71875 18.140625 8.90625 
Q 21.296875 6.109375 26.703125 6.109375 
Q 34.1875 6.109375 38.703125 11.40625 
Q 43.21875 16.703125 43.21875 25.484375 
L 43.21875 27.484375 
z
M 52.203125 31.203125 
L 52.203125 0 
L 43.21875 0 
L 43.21875 8.296875 
Q 40.140625 3.328125 35.546875 0.953125 
Q 30.953125 -1.421875 24.3125 -1.421875 
Q 15.921875 -1.421875 10.953125 3.296875 
Q 6 8.015625 6 15.921875 
Q 6 25.140625 12.171875 29.828125 
Q 18.359375 34.515625 30.609375 34.515625 
L 43.21875 34.515625 
L 43.21875 35.40625 
Q 43.21875 41.609375 39.140625 45 
Q 35.0625 48.390625 27.6875 48.390625 
Q 23 48.390625 18.546875 47.265625 
Q 14.109375 46.140625 10.015625 43.890625 
L 10.015625 52.203125 
Q 14.9375 54.109375 19.578125 55.046875 
Q 24.21875 56 28.609375 56 
Q 40.484375 56 46.34375 49.84375 
Q 52.203125 43.703125 52.203125 31.203125 
z
M 25.390625 79.984375 
L 32.625 79.984375 
L 44.578125 61.625 
L 37.796875 61.625 
L 29 73.578125 
L 20.21875 61.625 
L 13.421875 61.625 
z
" id="DejaVuSans-226"/>
      <path d="M 18.3125 70.21875 
L 18.3125 54.6875 
L 36.8125 54.6875 
L 36.8125 47.703125 
L 18.3125 47.703125 
L 18.3125 18.015625 
Q 18.3125 11.328125 20.140625 9.421875 
Q 21.96875 7.515625 27.59375 7.515625 
L 36.8125 7.515625 
L 36.8125 0 
L 27.59375 0 
Q 17.1875 0 13.234375 3.875 
Q 9.28125 7.765625 9.28125 18.015625 
L 9.28125 47.703125 
L 2.6875 47.703125 
L 2.6875 54.6875 
L 9.28125 54.6875 
L 9.28125 70.21875 
z
" id="DejaVuSans-116"/>
     </defs>
     <g transform="translate(284.017187 588.975959)scale(0.1 -0.1)">
      <use xlink:href="#DejaVuSans-67"/>
      <use x="69.824219" xlink:href="#DejaVuSans-111"/>
      <use x="131.005859" xlink:href="#DejaVuSans-109"/>
      <use x="228.417969" xlink:href="#DejaVuSans-98"/>
      <use x="291.894531" xlink:href="#DejaVuSans-105"/>
      <use x="319.677734" xlink:href="#DejaVuSans-110"/>
      <use x="383.056641" xlink:href="#DejaVuSans-97"/>
      <use x="444.335938" xlink:href="#DejaVuSans-231"/>
      <use x="499.316406" xlink:href="#DejaVuSans-245"/>
      <use x="560.498047" xlink:href="#DejaVuSans-101"/>
      <use x="622.021484" xlink:href="#DejaVuSans-115"/>
      <use x="674.121094" xlink:href="#DejaVuSans-32"/>
      <use x="705.908203" xlink:href="#DejaVuSans-100"/>
      <use x="769.384766" xlink:href="#DejaVuSans-101"/>
      <use x="830.908203" xlink:href="#DejaVuSans-32"/>
      <use x="862.695312" xlink:href="#DejaVuSans-104"/>
      <use x="926.074219" xlink:href="#DejaVuSans-105"/>
      <use x="953.857422" xlink:href="#DejaVuSans-112"/>
      <use x="1017.333984" xlink:href="#DejaVuSans-101"/>
      <use x="1078.857422" xlink:href="#DejaVuSans-114"/>
      <use x="1119.970703" xlink:href="#DejaVuSans-112"/>
      <use x="1183.447266" xlink:href="#DejaVuSans-97"/>
      <use x="1244.726562" xlink:href="#DejaVuSans-114"/>
      <use x="1285.839844" xlink:href="#DejaVuSans-226"/>
      <use x="1347.119141" xlink:href="#DejaVuSans-109"/>
      <use x="1444.53125" xlink:href="#DejaVuSans-101"/>
      <use x="1506.054688" xlink:href="#DejaVuSans-116"/>
      <use x="1545.263672" xlink:href="#DejaVuSans-114"/>
      <use x="1586.345703" xlink:href="#DejaVuSans-111"/>
      <use x="1647.527344" xlink:href="#DejaVuSans-115"/>
     </g>
    </g>
   </g>
   <g id="matplotlib.axis_2">
    <g id="ytick_1">
     <g id="line2d_11">
      <defs>
       <path d="M 0 0 
L -3.5 0 
" id="m94d3a1dfd0" style="stroke:#000000;stroke-width:0.8;"/>
      </defs>
      <g>
       <use style="stroke:#000000;stroke-width:0.8;" x="90" xlink:href="#m94d3a1dfd0" y="492.530834"/>
      </g>
     </g>
     <g id="text_12">
      <!-- 0 -->
      <g transform="translate(76.6375 496.330053)scale(0.1 -0.1)">
       <use xlink:href="#DejaVuSans-48"/>
      </g>
     </g>
    </g>
    <g id="ytick_2">
     <g id="line2d_12">
      <g>
       <use style="stroke:#000000;stroke-width:0.8;" x="90" xlink:href="#m94d3a1dfd0" y="427.462302"/>
      </g>
     </g>
     <g id="text_13">
      <!-- 20 -->
      <g transform="translate(70.275 431.261521)scale(0.1 -0.1)">
       <use xlink:href="#DejaVuSans-50"/>
       <use x="63.623047" xlink:href="#DejaVuSans-48"/>
      </g>
     </g>
    </g>
    <g id="ytick_3">
     <g id="line2d_13">
      <g>
       <use style="stroke:#000000;stroke-width:0.8;" x="90" xlink:href="#m94d3a1dfd0" y="362.39377"/>
      </g>
     </g>
     <g id="text_14">
      <!-- 40 -->
      <defs>
       <path d="M 37.796875 64.3125 
L 12.890625 25.390625 
L 37.796875 25.390625 
z
M 35.203125 72.90625 
L 47.609375 72.90625 
L 47.609375 25.390625 
L 58.015625 25.390625 
L 58.015625 17.1875 
L 47.609375 17.1875 
L 47.609375 0 
L 37.796875 0 
L 37.796875 17.1875 
L 4.890625 17.1875 
L 4.890625 26.703125 
z
" id="DejaVuSans-52"/>
      </defs>
      <g transform="translate(70.275 366.192988)scale(0.1 -0.1)">
       <use xlink:href="#DejaVuSans-52"/>
       <use x="63.623047" xlink:href="#DejaVuSans-48"/>
      </g>
     </g>
    </g>
    <g id="ytick_4">
     <g id="line2d_14">
      <g>
       <use style="stroke:#000000;stroke-width:0.8;" x="90" xlink:href="#m94d3a1dfd0" y="297.325237"/>
      </g>
     </g>
     <g id="text_15">
      <!-- 60 -->
      <defs>
       <path d="M 33.015625 40.375 
Q 26.375 40.375 22.484375 35.828125 
Q 18.609375 31.296875 18.609375 23.390625 
Q 18.609375 15.53125 22.484375 10.953125 
Q 26.375 6.390625 33.015625 6.390625 
Q 39.65625 6.390625 43.53125 10.953125 
Q 47.40625 15.53125 47.40625 23.390625 
Q 47.40625 31.296875 43.53125 35.828125 
Q 39.65625 40.375 33.015625 40.375 
z
M 52.59375 71.296875 
L 52.59375 62.3125 
Q 48.875 64.0625 45.09375 64.984375 
Q 41.3125 65.921875 37.59375 65.921875 
Q 27.828125 65.921875 22.671875 59.328125 
Q 17.53125 52.734375 16.796875 39.40625 
Q 19.671875 43.65625 24.015625 45.921875 
Q 28.375 48.1875 33.59375 48.1875 
Q 44.578125 48.1875 50.953125 41.515625 
Q 57.328125 34.859375 57.328125 23.390625 
Q 57.328125 12.15625 50.6875 5.359375 
Q 44.046875 -1.421875 33.015625 -1.421875 
Q 20.359375 -1.421875 13.671875 8.265625 
Q 6.984375 17.96875 6.984375 36.375 
Q 6.984375 53.65625 15.1875 63.9375 
Q 23.390625 74.21875 37.203125 74.21875 
Q 40.921875 74.21875 44.703125 73.484375 
Q 48.484375 72.75 52.59375 71.296875 
z
" id="DejaVuSans-54"/>
      </defs>
      <g transform="translate(70.275 301.124456)scale(0.1 -0.1)">
       <use xlink:href="#DejaVuSans-54"/>
       <use x="63.623047" xlink:href="#DejaVuSans-48"/>
      </g>
     </g>
    </g>
    <g id="ytick_5">
     <g id="line2d_15">
      <g>
       <use style="stroke:#000000;stroke-width:0.8;" x="90" xlink:href="#m94d3a1dfd0" y="232.256705"/>
      </g>
     </g>
     <g id="text_16">
      <!-- 80 -->
      <g transform="translate(70.275 236.055924)scale(0.1 -0.1)">
       <use xlink:href="#DejaVuSans-56"/>
       <use x="63.623047" xlink:href="#DejaVuSans-48"/>
      </g>
     </g>
    </g>
    <g id="ytick_6">
     <g id="line2d_16">
      <g>
       <use style="stroke:#000000;stroke-width:0.8;" x="90" xlink:href="#m94d3a1dfd0" y="167.188173"/>
      </g>
     </g>
     <g id="text_17">
      <!-- 100 -->
      <g transform="translate(63.9125 170.987392)scale(0.1 -0.1)">
       <use xlink:href="#DejaVuSans-49"/>
       <use x="63.623047" xlink:href="#DejaVuSans-48"/>
       <use x="127.246094" xlink:href="#DejaVuSans-48"/>
      </g>
     </g>
    </g>
    <g id="ytick_7">
     <g id="line2d_17">
      <g>
       <use style="stroke:#000000;stroke-width:0.8;" x="90" xlink:href="#m94d3a1dfd0" y="102.119641"/>
      </g>
     </g>
     <g id="text_18">
      <!-- 120 -->
      <g transform="translate(63.9125 105.918859)scale(0.1 -0.1)">
       <use xlink:href="#DejaVuSans-49"/>
       <use x="63.623047" xlink:href="#DejaVuSans-50"/>
       <use x="127.246094" xlink:href="#DejaVuSans-48"/>
      </g>
     </g>
    </g>
    <g id="text_19">
     <!-- Tempo de execucao (em segundos) -->
     <defs>
      <path d="M -0.296875 72.90625 
L 61.375 72.90625 
L 61.375 64.59375 
L 35.5 64.59375 
L 35.5 0 
L 25.59375 0 
L 25.59375 64.59375 
L -0.296875 64.59375 
z
" id="DejaVuSans-84"/>
      <path d="M 54.890625 54.6875 
L 35.109375 28.078125 
L 55.90625 0 
L 45.3125 0 
L 29.390625 21.484375 
L 13.484375 0 
L 2.875 0 
L 24.125 28.609375 
L 4.6875 54.6875 
L 15.28125 54.6875 
L 29.78125 35.203125 
L 44.28125 54.6875 
z
" id="DejaVuSans-120"/>
      <path d="M 48.78125 52.59375 
L 48.78125 44.1875 
Q 44.96875 46.296875 41.140625 47.34375 
Q 37.3125 48.390625 33.40625 48.390625 
Q 24.65625 48.390625 19.8125 42.84375 
Q 14.984375 37.3125 14.984375 27.296875 
Q 14.984375 17.28125 19.8125 11.734375 
Q 24.65625 6.203125 33.40625 6.203125 
Q 37.3125 6.203125 41.140625 7.25 
Q 44.96875 8.296875 48.78125 10.40625 
L 48.78125 2.09375 
Q 45.015625 0.34375 40.984375 -0.53125 
Q 36.96875 -1.421875 32.421875 -1.421875 
Q 20.0625 -1.421875 12.78125 6.34375 
Q 5.515625 14.109375 5.515625 27.296875 
Q 5.515625 40.671875 12.859375 48.328125 
Q 20.21875 56 33.015625 56 
Q 37.15625 56 41.109375 55.140625 
Q 45.0625 54.296875 48.78125 52.59375 
z
" id="DejaVuSans-99"/>
      <path d="M 8.5 21.578125 
L 8.5 54.6875 
L 17.484375 54.6875 
L 17.484375 21.921875 
Q 17.484375 14.15625 20.5 10.265625 
Q 23.53125 6.390625 29.59375 6.390625 
Q 36.859375 6.390625 41.078125 11.03125 
Q 45.3125 15.671875 45.3125 23.6875 
L 45.3125 54.6875 
L 54.296875 54.6875 
L 54.296875 0 
L 45.3125 0 
L 45.3125 8.40625 
Q 42.046875 3.421875 37.71875 1 
Q 33.40625 -1.421875 27.6875 -1.421875 
Q 18.265625 -1.421875 13.375 4.4375 
Q 8.5 10.296875 8.5 21.578125 
z
M 31.109375 56 
z
" id="DejaVuSans-117"/>
      <path d="M 45.40625 27.984375 
Q 45.40625 37.75 41.375 43.109375 
Q 37.359375 48.484375 30.078125 48.484375 
Q 22.859375 48.484375 18.828125 43.109375 
Q 14.796875 37.75 14.796875 27.984375 
Q 14.796875 18.265625 18.828125 12.890625 
Q 22.859375 7.515625 30.078125 7.515625 
Q 37.359375 7.515625 41.375 12.890625 
Q 45.40625 18.265625 45.40625 27.984375 
z
M 54.390625 6.78125 
Q 54.390625 -7.171875 48.1875 -13.984375 
Q 42 -20.796875 29.203125 -20.796875 
Q 24.46875 -20.796875 20.265625 -20.09375 
Q 16.0625 -19.390625 12.109375 -17.921875 
L 12.109375 -9.1875 
Q 16.0625 -11.328125 19.921875 -12.34375 
Q 23.78125 -13.375 27.78125 -13.375 
Q 36.625 -13.375 41.015625 -8.765625 
Q 45.40625 -4.15625 45.40625 5.171875 
L 45.40625 9.625 
Q 42.625 4.78125 38.28125 2.390625 
Q 33.9375 0 27.875 0 
Q 17.828125 0 11.671875 7.65625 
Q 5.515625 15.328125 5.515625 27.984375 
Q 5.515625 40.671875 11.671875 48.328125 
Q 17.828125 56 27.875 56 
Q 33.9375 56 38.28125 53.609375 
Q 42.625 51.21875 45.40625 46.390625 
L 45.40625 54.6875 
L 54.390625 54.6875 
z
" id="DejaVuSans-103"/>
     </defs>
     <g transform="translate(57.832812 380.487813)rotate(-90)scale(0.1 -0.1)">
      <use xlink:href="#DejaVuSans-84"/>
      <use x="60.818359" xlink:href="#DejaVuSans-101"/>
      <use x="122.341797" xlink:href="#DejaVuSans-109"/>
      <use x="219.753906" xlink:href="#DejaVuSans-112"/>
      <use x="283.230469" xlink:href="#DejaVuSans-111"/>
      <use x="344.412109" xlink:href="#DejaVuSans-32"/>
      <use x="376.199219" xlink:href="#DejaVuSans-100"/>
      <use x="439.675781" xlink:href="#DejaVuSans-101"/>
      <use x="501.199219" xlink:href="#DejaVuSans-32"/>
      <use x="532.986328" xlink:href="#DejaVuSans-101"/>
      <use x="594.494141" xlink:href="#DejaVuSans-120"/>
      <use x="653.626953" xlink:href="#DejaVuSans-101"/>
      <use x="715.150391" xlink:href="#DejaVuSans-99"/>
      <use x="770.130859" xlink:href="#DejaVuSans-117"/>
      <use x="833.509766" xlink:href="#DejaVuSans-99"/>
      <use x="888.490234" xlink:href="#DejaVuSans-97"/>
      <use x="949.769531" xlink:href="#DejaVuSans-111"/>
      <use x="1010.951172" xlink:href="#DejaVuSans-32"/>
      <use x="1042.738281" xlink:href="#DejaVuSans-40"/>
      <use x="1081.751953" xlink:href="#DejaVuSans-101"/>
      <use x="1143.275391" xlink:href="#DejaVuSans-109"/>
      <use x="1240.6875" xlink:href="#DejaVuSans-32"/>
      <use x="1272.474609" xlink:href="#DejaVuSans-115"/>
      <use x="1324.574219" xlink:href="#DejaVuSans-101"/>
      <use x="1386.097656" xlink:href="#DejaVuSans-103"/>
      <use x="1449.574219" xlink:href="#DejaVuSans-117"/>
      <use x="1512.953125" xlink:href="#DejaVuSans-110"/>
      <use x="1576.332031" xlink:href="#DejaVuSans-100"/>
      <use x="1639.808594" xlink:href="#DejaVuSans-111"/>
      <use x="1700.990234" xlink:href="#DejaVuSans-115"/>
      <use x="1753.089844" xlink:href="#DejaVuSans-41"/>
     </g>
    </g>
   </g>
   <g id="line2d_18">
    <path clip-path="url(#p1fa9e02d4b)" d="M 117.9 492.111445 
L 117.9 492.174994 
" style="fill:none;stroke:#3d3d3d;stroke-linecap:square;stroke-width:1.5;"/>
   </g>
   <g id="line2d_19">
    <path clip-path="url(#p1fa9e02d4b)" d="M 117.9 491.590399 
L 117.9 491.514148 
" style="fill:none;stroke:#3d3d3d;stroke-linecap:square;stroke-width:1.5;"/>
   </g>
   <g id="line2d_20">
    <path clip-path="url(#p1fa9e02d4b)" d="M 106.74 492.174994 
L 129.06 492.174994 
" style="fill:none;stroke:#3d3d3d;stroke-linecap:square;stroke-width:1.5;"/>
   </g>
   <g id="line2d_21">
    <path clip-path="url(#p1fa9e02d4b)" d="M 106.74 491.514148 
L 129.06 491.514148 
" style="fill:none;stroke:#3d3d3d;stroke-linecap:square;stroke-width:1.5;"/>
   </g>
   <g id="line2d_22">
    <defs>
     <path d="M -0 3.535534 
L 2.12132 0 
L -0 -3.535534 
L -2.12132 -0 
z
" id="m279e4e3e2f" style="stroke:#3d3d3d;stroke-linejoin:miter;"/>
    </defs>
    <g clip-path="url(#p1fa9e02d4b)">
     <use style="fill:#3d3d3d;stroke:#3d3d3d;stroke-linejoin:miter;" x="117.9" xlink:href="#m279e4e3e2f" y="431.361775"/>
     <use style="fill:#3d3d3d;stroke:#3d3d3d;stroke-linejoin:miter;" x="117.9" xlink:href="#m279e4e3e2f" y="89.28"/>
    </g>
   </g>
   <g id="line2d_23">
    <path clip-path="url(#p1fa9e02d4b)" d="M 173.7 492.073326 
L 173.7 492.197324 
" style="fill:none;stroke:#3d3d3d;stroke-linecap:square;stroke-width:1.5;"/>
   </g>
   <g id="line2d_24">
    <path clip-path="url(#p1fa9e02d4b)" d="M 173.7 491.613032 
L 173.7 491.544325 
" style="fill:none;stroke:#3d3d3d;stroke-linecap:square;stroke-width:1.5;"/>
   </g>
   <g id="line2d_25">
    <path clip-path="url(#p1fa9e02d4b)" d="M 162.54 492.197324 
L 184.86 492.197324 
" style="fill:none;stroke:#3d3d3d;stroke-linecap:square;stroke-width:1.5;"/>
   </g>
   <g id="line2d_26">
    <path clip-path="url(#p1fa9e02d4b)" d="M 162.54 491.544325 
L 184.86 491.544325 
" style="fill:none;stroke:#3d3d3d;stroke-linecap:square;stroke-width:1.5;"/>
   </g>
   <g id="line2d_27">
    <g clip-path="url(#p1fa9e02d4b)">
     <use style="fill:#3d3d3d;stroke:#3d3d3d;stroke-linejoin:miter;" x="173.7" xlink:href="#m279e4e3e2f" y="401.798902"/>
     <use style="fill:#3d3d3d;stroke:#3d3d3d;stroke-linejoin:miter;" x="173.7" xlink:href="#m279e4e3e2f" y="112.082265"/>
    </g>
   </g>
   <g id="line2d_28">
    <path clip-path="url(#p1fa9e02d4b)" d="M 229.5 492.302082 
L 229.5 492.37833 
" style="fill:none;stroke:#3d3d3d;stroke-linecap:square;stroke-width:1.5;"/>
   </g>
   <g id="line2d_29">
    <path clip-path="url(#p1fa9e02d4b)" d="M 229.5 492.022491 
L 229.5 491.971656 
" style="fill:none;stroke:#3d3d3d;stroke-linecap:square;stroke-width:1.5;"/>
   </g>
   <g id="line2d_30">
    <path clip-path="url(#p1fa9e02d4b)" d="M 218.34 492.37833 
L 240.66 492.37833 
" style="fill:none;stroke:#3d3d3d;stroke-linecap:square;stroke-width:1.5;"/>
   </g>
   <g id="line2d_31">
    <path clip-path="url(#p1fa9e02d4b)" d="M 218.34 491.971656 
L 240.66 491.971656 
" style="fill:none;stroke:#3d3d3d;stroke-linecap:square;stroke-width:1.5;"/>
   </g>
   <g id="line2d_32">
    <g clip-path="url(#p1fa9e02d4b)">
     <use style="fill:#3d3d3d;stroke:#3d3d3d;stroke-linejoin:miter;" x="229.5" xlink:href="#m279e4e3e2f" y="414.222438"/>
     <use style="fill:#3d3d3d;stroke:#3d3d3d;stroke-linejoin:miter;" x="229.5" xlink:href="#m279e4e3e2f" y="108.471375"/>
    </g>
   </g>
   <g id="line2d_33">
    <path clip-path="url(#p1fa9e02d4b)" d="M 285.3 492.073324 
L 285.3 492.175001 
" style="fill:none;stroke:#3d3d3d;stroke-linecap:square;stroke-width:1.5;"/>
   </g>
   <g id="line2d_34">
    <path clip-path="url(#p1fa9e02d4b)" d="M 285.3 491.625792 
L 285.3 491.544394 
" style="fill:none;stroke:#3d3d3d;stroke-linecap:square;stroke-width:1.5;"/>
   </g>
   <g id="line2d_35">
    <path clip-path="url(#p1fa9e02d4b)" d="M 274.14 492.175001 
L 296.46 492.175001 
" style="fill:none;stroke:#3d3d3d;stroke-linecap:square;stroke-width:1.5;"/>
   </g>
   <g id="line2d_36">
    <path clip-path="url(#p1fa9e02d4b)" d="M 274.14 491.544394 
L 296.46 491.544394 
" style="fill:none;stroke:#3d3d3d;stroke-linecap:square;stroke-width:1.5;"/>
   </g>
   <g id="line2d_37">
    <g clip-path="url(#p1fa9e02d4b)">
     <use style="fill:#3d3d3d;stroke:#3d3d3d;stroke-linejoin:miter;" x="285.3" xlink:href="#m279e4e3e2f" y="404.650971"/>
     <use style="fill:#3d3d3d;stroke:#3d3d3d;stroke-linejoin:miter;" x="285.3" xlink:href="#m279e4e3e2f" y="184.651016"/>
    </g>
   </g>
   <g id="line2d_38">
    <path clip-path="url(#p1fa9e02d4b)" d="M 341.1 492.314786 
L 341.1 492.37833 
" style="fill:none;stroke:#3d3d3d;stroke-linecap:square;stroke-width:1.5;"/>
   </g>
   <g id="line2d_39">
    <path clip-path="url(#p1fa9e02d4b)" d="M 341.1 492.060617 
L 341.1 492.022492 
" style="fill:none;stroke:#3d3d3d;stroke-linecap:square;stroke-width:1.5;"/>
   </g>
   <g id="line2d_40">
    <path clip-path="url(#p1fa9e02d4b)" d="M 329.94 492.37833 
L 352.26 492.37833 
" style="fill:none;stroke:#3d3d3d;stroke-linecap:square;stroke-width:1.5;"/>
   </g>
   <g id="line2d_41">
    <path clip-path="url(#p1fa9e02d4b)" d="M 329.94 492.022492 
L 352.26 492.022492 
" style="fill:none;stroke:#3d3d3d;stroke-linecap:square;stroke-width:1.5;"/>
   </g>
   <g id="line2d_42">
    <g clip-path="url(#p1fa9e02d4b)">
     <use style="fill:#3d3d3d;stroke:#3d3d3d;stroke-linejoin:miter;" x="341.1" xlink:href="#m279e4e3e2f" y="387.168311"/>
     <use style="fill:#3d3d3d;stroke:#3d3d3d;stroke-linejoin:miter;" x="341.1" xlink:href="#m279e4e3e2f" y="263.79762"/>
    </g>
   </g>
   <g id="line2d_43">
    <path clip-path="url(#p1fa9e02d4b)" d="M 396.9 492.086034 
L 396.9 492.225828 
" style="fill:none;stroke:#3d3d3d;stroke-linecap:square;stroke-width:1.5;"/>
   </g>
   <g id="line2d_44">
    <path clip-path="url(#p1fa9e02d4b)" d="M 396.9 491.564977 
L 396.9 491.463307 
" style="fill:none;stroke:#3d3d3d;stroke-linecap:square;stroke-width:1.5;"/>
   </g>
   <g id="line2d_45">
    <path clip-path="url(#p1fa9e02d4b)" d="M 385.74 492.225828 
L 408.06 492.225828 
" style="fill:none;stroke:#3d3d3d;stroke-linecap:square;stroke-width:1.5;"/>
   </g>
   <g id="line2d_46">
    <path clip-path="url(#p1fa9e02d4b)" d="M 385.74 491.463307 
L 408.06 491.463307 
" style="fill:none;stroke:#3d3d3d;stroke-linecap:square;stroke-width:1.5;"/>
   </g>
   <g id="line2d_47">
    <g clip-path="url(#p1fa9e02d4b)">
     <use style="fill:#3d3d3d;stroke:#3d3d3d;stroke-linejoin:miter;" x="396.9" xlink:href="#m279e4e3e2f" y="382.118245"/>
     <use style="fill:#3d3d3d;stroke:#3d3d3d;stroke-linejoin:miter;" x="396.9" xlink:href="#m279e4e3e2f" y="106.949321"/>
    </g>
   </g>
   <g id="line2d_48">
    <path clip-path="url(#p1fa9e02d4b)" d="M 452.7 492.302078 
L 452.7 492.37833 
" style="fill:none;stroke:#3d3d3d;stroke-linecap:square;stroke-width:1.5;"/>
   </g>
   <g id="line2d_49">
    <path clip-path="url(#p1fa9e02d4b)" d="M 452.7 492.060616 
L 452.7 492.022491 
" style="fill:none;stroke:#3d3d3d;stroke-linecap:square;stroke-width:1.5;"/>
   </g>
   <g id="line2d_50">
    <path clip-path="url(#p1fa9e02d4b)" d="M 441.54 492.37833 
L 463.86 492.37833 
" style="fill:none;stroke:#3d3d3d;stroke-linecap:square;stroke-width:1.5;"/>
   </g>
   <g id="line2d_51">
    <path clip-path="url(#p1fa9e02d4b)" d="M 441.54 492.022491 
L 463.86 492.022491 
" style="fill:none;stroke:#3d3d3d;stroke-linecap:square;stroke-width:1.5;"/>
   </g>
   <g id="line2d_52">
    <g clip-path="url(#p1fa9e02d4b)">
     <use style="fill:#3d3d3d;stroke:#3d3d3d;stroke-linejoin:miter;" x="452.7" xlink:href="#m279e4e3e2f" y="432.310522"/>
     <use style="fill:#3d3d3d;stroke:#3d3d3d;stroke-linejoin:miter;" x="452.7" xlink:href="#m279e4e3e2f" y="312.955821"/>
    </g>
   </g>
   <g id="line2d_53">
    <path clip-path="url(#p1fa9e02d4b)" d="M 508.5 492.42917 
L 508.5 492.479984 
" style="fill:none;stroke:#3d3d3d;stroke-linecap:square;stroke-width:1.5;"/>
   </g>
   <g id="line2d_54">
    <path clip-path="url(#p1fa9e02d4b)" d="M 508.5 492.391039 
L 508.5 492.378333 
" style="fill:none;stroke:#3d3d3d;stroke-linecap:square;stroke-width:1.5;"/>
   </g>
   <g id="line2d_55">
    <path clip-path="url(#p1fa9e02d4b)" d="M 497.34 492.479984 
L 519.66 492.479984 
" style="fill:none;stroke:#3d3d3d;stroke-linecap:square;stroke-width:1.5;"/>
   </g>
   <g id="line2d_56">
    <path clip-path="url(#p1fa9e02d4b)" d="M 497.34 492.378333 
L 519.66 492.378333 
" style="fill:none;stroke:#3d3d3d;stroke-linecap:square;stroke-width:1.5;"/>
   </g>
   <g id="line2d_57">
    <g clip-path="url(#p1fa9e02d4b)">
     <use style="fill:#3d3d3d;stroke:#3d3d3d;stroke-linejoin:miter;" x="508.5" xlink:href="#m279e4e3e2f" y="433.606921"/>
     <use style="fill:#3d3d3d;stroke:#3d3d3d;stroke-linejoin:miter;" x="508.5" xlink:href="#m279e4e3e2f" y="339.692534"/>
    </g>
   </g>
   <g id="line2d_58">
    <path clip-path="url(#p1fa9e02d4b)" d="M 564.3 492.302061 
L 564.3 492.378324 
" style="fill:none;stroke:#3d3d3d;stroke-linecap:square;stroke-width:1.5;"/>
   </g>
   <g id="line2d_59">
    <path clip-path="url(#p1fa9e02d4b)" d="M 564.3 491.946235 
L 564.3 491.920817 
" style="fill:none;stroke:#3d3d3d;stroke-linecap:square;stroke-width:1.5;"/>
   </g>
   <g id="line2d_60">
    <path clip-path="url(#p1fa9e02d4b)" d="M 553.14 492.378324 
L 575.46 492.378324 
" style="fill:none;stroke:#3d3d3d;stroke-linecap:square;stroke-width:1.5;"/>
   </g>
   <g id="line2d_61">
    <path clip-path="url(#p1fa9e02d4b)" d="M 553.14 491.920817 
L 575.46 491.920817 
" style="fill:none;stroke:#3d3d3d;stroke-linecap:square;stroke-width:1.5;"/>
   </g>
   <g id="line2d_62">
    <g clip-path="url(#p1fa9e02d4b)">
     <use style="fill:#3d3d3d;stroke:#3d3d3d;stroke-linejoin:miter;" x="564.3" xlink:href="#m279e4e3e2f" y="405.947065"/>
     <use style="fill:#3d3d3d;stroke:#3d3d3d;stroke-linejoin:miter;" x="564.3" xlink:href="#m279e4e3e2f" y="179.138236"/>
    </g>
   </g>
   <g id="line2d_63">
    <path clip-path="url(#p1fa9e02d4b)" d="M 620.1 492.42962 
L 620.1 492.48 
" style="fill:none;stroke:#3d3d3d;stroke-linecap:square;stroke-width:1.5;"/>
   </g>
   <g id="line2d_64">
    <path clip-path="url(#p1fa9e02d4b)" d="M 620.1 492.34021 
L 620.1 492.327502 
" style="fill:none;stroke:#3d3d3d;stroke-linecap:square;stroke-width:1.5;"/>
   </g>
   <g id="line2d_65">
    <path clip-path="url(#p1fa9e02d4b)" d="M 608.94 492.48 
L 631.26 492.48 
" style="fill:none;stroke:#3d3d3d;stroke-linecap:square;stroke-width:1.5;"/>
   </g>
   <g id="line2d_66">
    <path clip-path="url(#p1fa9e02d4b)" d="M 608.94 492.327502 
L 631.26 492.327502 
" style="fill:none;stroke:#3d3d3d;stroke-linecap:square;stroke-width:1.5;"/>
   </g>
   <g id="line2d_67">
    <g clip-path="url(#p1fa9e02d4b)">
     <use style="fill:#3d3d3d;stroke:#3d3d3d;stroke-linejoin:miter;" x="620.1" xlink:href="#m279e4e3e2f" y="453.918954"/>
     <use style="fill:#3d3d3d;stroke:#3d3d3d;stroke-linejoin:miter;" x="620.1" xlink:href="#m279e4e3e2f" y="371.499237"/>
    </g>
   </g>
   <g id="line2d_68">
    <path clip-path="url(#p1fa9e02d4b)" d="M 95.58 491.869988 
L 140.22 491.869988 
" style="fill:none;stroke:#3d3d3d;stroke-linecap:square;stroke-width:1.5;"/>
   </g>
   <g id="line2d_69">
    <defs>
     <path d="M 0 -3 
L -3 3 
L 3 3 
z
" id="mecd27caf5e" style="stroke:#2ca02c;stroke-linejoin:miter;"/>
    </defs>
    <g clip-path="url(#p1fa9e02d4b)">
     <use style="fill:#2ca02c;stroke:#2ca02c;stroke-linejoin:miter;" x="117.9" xlink:href="#mecd27caf5e" y="445.616085"/>
    </g>
   </g>
   <g id="line2d_70">
    <path clip-path="url(#p1fa9e02d4b)" d="M 151.38 491.869987 
L 196.02 491.869987 
" style="fill:none;stroke:#3d3d3d;stroke-linecap:square;stroke-width:1.5;"/>
   </g>
   <g id="line2d_71">
    <g clip-path="url(#p1fa9e02d4b)">
     <use style="fill:#2ca02c;stroke:#2ca02c;stroke-linejoin:miter;" x="173.7" xlink:href="#mecd27caf5e" y="444.940192"/>
    </g>
   </g>
   <g id="line2d_72">
    <path clip-path="url(#p1fa9e02d4b)" d="M 207.18 492.20041 
L 251.82 492.20041 
" style="fill:none;stroke:#3d3d3d;stroke-linecap:square;stroke-width:1.5;"/>
   </g>
   <g id="line2d_73">
    <g clip-path="url(#p1fa9e02d4b)">
     <use style="fill:#2ca02c;stroke:#2ca02c;stroke-linejoin:miter;" x="229.5" xlink:href="#mecd27caf5e" y="446.055126"/>
    </g>
   </g>
   <g id="line2d_74">
    <path clip-path="url(#p1fa9e02d4b)" d="M 262.98 491.885008 
L 307.62 491.885008 
" style="fill:none;stroke:#3d3d3d;stroke-linecap:square;stroke-width:1.5;"/>
   </g>
   <g id="line2d_75">
    <g clip-path="url(#p1fa9e02d4b)">
     <use style="fill:#2ca02c;stroke:#2ca02c;stroke-linejoin:miter;" x="285.3" xlink:href="#mecd27caf5e" y="452.488136"/>
    </g>
   </g>
   <g id="line2d_76">
    <path clip-path="url(#p1fa9e02d4b)" d="M 318.78 492.200411 
L 363.42 492.200411 
" style="fill:none;stroke:#3d3d3d;stroke-linecap:square;stroke-width:1.5;"/>
   </g>
   <g id="line2d_77">
    <g clip-path="url(#p1fa9e02d4b)">
     <use style="fill:#2ca02c;stroke:#2ca02c;stroke-linejoin:miter;" x="341.1" xlink:href="#mecd27caf5e" y="458.887423"/>
    </g>
   </g>
   <g id="line2d_78">
    <path clip-path="url(#p1fa9e02d4b)" d="M 374.58 491.895405 
L 419.22 491.895405 
" style="fill:none;stroke:#3d3d3d;stroke-linecap:square;stroke-width:1.5;"/>
   </g>
   <g id="line2d_79">
    <g clip-path="url(#p1fa9e02d4b)">
     <use style="fill:#2ca02c;stroke:#2ca02c;stroke-linejoin:miter;" x="396.9" xlink:href="#mecd27caf5e" y="442.468831"/>
    </g>
   </g>
   <g id="line2d_80">
    <path clip-path="url(#p1fa9e02d4b)" d="M 430.38 492.225828 
L 475.02 492.225828 
" style="fill:none;stroke:#3d3d3d;stroke-linecap:square;stroke-width:1.5;"/>
   </g>
   <g id="line2d_81">
    <g clip-path="url(#p1fa9e02d4b)">
     <use style="fill:#2ca02c;stroke:#2ca02c;stroke-linejoin:miter;" x="452.7" xlink:href="#mecd27caf5e" y="468.322547"/>
    </g>
   </g>
   <g id="line2d_82">
    <path clip-path="url(#p1fa9e02d4b)" d="M 486.18 492.429162 
L 530.82 492.429162 
" style="fill:none;stroke:#3d3d3d;stroke-linecap:square;stroke-width:1.5;"/>
   </g>
   <g id="line2d_83">
    <g clip-path="url(#p1fa9e02d4b)">
     <use style="fill:#2ca02c;stroke:#2ca02c;stroke-linejoin:miter;" x="508.5" xlink:href="#mecd27caf5e" y="471.273277"/>
    </g>
   </g>
   <g id="line2d_84">
    <path clip-path="url(#p1fa9e02d4b)" d="M 541.98 492.098758 
L 586.62 492.098758 
" style="fill:none;stroke:#3d3d3d;stroke-linecap:square;stroke-width:1.5;"/>
   </g>
   <g id="line2d_85">
    <g clip-path="url(#p1fa9e02d4b)">
     <use style="fill:#2ca02c;stroke:#2ca02c;stroke-linejoin:miter;" x="564.3" xlink:href="#mecd27caf5e" y="452.251634"/>
    </g>
   </g>
   <g id="line2d_86">
    <path clip-path="url(#p1fa9e02d4b)" d="M 597.78 492.428858 
L 642.42 492.428858 
" style="fill:none;stroke:#3d3d3d;stroke-linecap:square;stroke-width:1.5;"/>
   </g>
   <g id="line2d_87">
    <g clip-path="url(#p1fa9e02d4b)">
     <use style="fill:#2ca02c;stroke:#2ca02c;stroke-linejoin:miter;" x="620.1" xlink:href="#mecd27caf5e" y="476.480068"/>
    </g>
   </g>
   <g id="patch_13">
    <path d="M 90 512.64 
L 90 69.12 
" style="fill:none;stroke:#000000;stroke-linecap:square;stroke-linejoin:miter;stroke-width:0.8;"/>
   </g>
   <g id="patch_14">
    <path d="M 648 512.64 
L 648 69.12 
" style="fill:none;stroke:#000000;stroke-linecap:square;stroke-linejoin:miter;stroke-width:0.8;"/>
   </g>
   <g id="patch_15">
    <path d="M 90 512.64 
L 648 512.64 
" style="fill:none;stroke:#000000;stroke-linecap:square;stroke-linejoin:miter;stroke-width:0.8;"/>
   </g>
   <g id="patch_16">
    <path d="M 90 69.12 
L 648 69.12 
" style="fill:none;stroke:#000000;stroke-linecap:square;stroke-linejoin:miter;stroke-width:0.8;"/>
   </g>
  </g>
 </g>
 <defs>
  <clipPath id="p1fa9e02d4b">
   <rect height="443.52" width="558" x="90" y="69.12"/>
  </clipPath>
 </defs>
</svg>
